<svg width="22" height="22" viewBox="0 0 22 22" fill="none" xmlns="http://www.w3.org/2000/svg">
<path d="M9.87518 11.1478C9.87518 11.4462 9.9937 11.7323 10.2047 11.9433C10.4157 12.1543 10.7018 12.2728 11.0002 12.2728C11.2985 12.2728 11.5847 12.1543 11.7957 11.9433C12.0067 11.7323 12.1252 11.4462 12.1252 11.1478C12.1252 10.8495 12.0067 10.5633 11.7957 10.3523C11.5847 10.1414 11.2985 10.0228 11.0002 10.0228C10.7018 10.0228 10.4157 10.1414 10.2047 10.3523C9.9937 10.5633 9.87518 10.8495 9.87518 11.1478ZM14.5627 11.1478C14.5627 11.4462 14.6812 11.7323 14.8922 11.9433C15.1032 12.1543 15.3893 12.2728 15.6877 12.2728C15.986 12.2728 16.2722 12.1543 16.4832 11.9433C16.6942 11.7323 16.8127 11.4462 16.8127 11.1478C16.8127 10.8495 16.6942 10.5633 16.4832 10.3523C16.2722 10.1414 15.986 10.0228 15.6877 10.0228C15.3893 10.0228 15.1032 10.1414 14.8922 10.3523C14.6812 10.5633 14.5627 10.8495 14.5627 11.1478ZM5.18768 11.1478C5.18768 11.4462 5.30621 11.7323 5.51718 11.9433C5.72816 12.1543 6.01431 12.2728 6.31268 12.2728C6.61105 12.2728 6.8972 12.1543 7.10817 11.9433C7.31915 11.7323 7.43768 11.4462 7.43768 11.1478C7.43768 10.8495 7.31915 10.5633 7.10817 10.3523C6.8972 10.1414 6.61105 10.0228 6.31268 10.0228C6.01431 10.0228 5.72816 10.1414 5.51718 10.3523C5.30621 10.5633 5.18768 10.8495 5.18768 11.1478ZM20.6846 7.07908C20.1549 5.82048 19.3955 4.6908 18.4275 3.72048C17.4663 2.75579 16.3253 1.98897 15.0689 1.46345C13.7799 0.922046 12.4111 0.647827 11.0002 0.647827H10.9533C9.53299 0.654858 8.15721 0.936108 6.86346 1.48923C5.61789 2.02014 4.48752 2.78832 3.53534 3.75095C2.57674 4.71892 1.8244 5.84392 1.30409 7.09783C0.765023 8.39627 0.493147 9.77673 0.500179 11.197C0.508132 12.8247 0.893206 14.4284 1.62518 15.8822V19.4447C1.62518 19.7306 1.73877 20.0049 1.94095 20.2071C2.14314 20.4092 2.41737 20.5228 2.7033 20.5228H6.26815C7.72196 21.2548 9.32564 21.6399 10.9533 21.6478H11.0025C12.4064 21.6478 13.7681 21.376 15.0502 20.8439C16.3002 20.3247 17.437 19.5668 18.3971 18.6127C19.365 17.6541 20.1267 16.5338 20.6588 15.2845C21.2119 13.9908 21.4931 12.615 21.5002 11.1947C21.5072 9.76736 21.2306 8.3822 20.6846 7.07908ZM17.1431 17.3447C15.5002 18.9713 13.3205 19.8666 11.0002 19.8666H10.9603C9.54705 19.8595 8.14315 19.508 6.9033 18.847L6.70643 18.7416H3.40643V15.4416L3.30096 15.2447C2.64002 14.0049 2.28846 12.601 2.28143 11.1877C2.27205 8.85095 3.16502 6.6572 4.8033 5.00486C6.43924 3.35251 8.62596 2.43845 10.9627 2.42908H11.0025C12.1744 2.42908 13.3111 2.65642 14.3822 3.10642C15.4275 3.5447 16.365 4.17517 17.1713 4.98142C17.9752 5.78533 18.608 6.72517 19.0463 7.77048C19.501 8.8533 19.7283 10.0017 19.7236 11.1877C19.7096 13.522 18.7931 15.7088 17.1431 17.3447Z" fill="#8C8C8C"/>
</svg>
