<svg width="20" height="20" viewBox="0 0 20 20" fill="none" xmlns="http://www.w3.org/2000/svg">
<path d="M18.9367 5.02205L15.1258 1.21111C14.95 1.03533 14.7344 0.906421 14.5 0.836108V0.772827H1.375C0.960156 0.772827 0.625 1.10798 0.625 1.52283V18.7728C0.625 19.1877 0.960156 19.5228 1.375 19.5228H18.625C19.0398 19.5228 19.375 19.1877 19.375 18.7728V6.08142C19.375 5.68298 19.218 5.3033 18.9367 5.02205ZM7 2.46033H13V4.89783H7V2.46033ZM17.6875 17.8353H2.3125V2.46033H5.5V5.64783C5.5 6.06267 5.83516 6.39783 6.25 6.39783H13.75C14.1648 6.39783 14.5 6.06267 14.5 5.64783V2.97126L17.6875 6.15876V17.8353ZM10 8.5072C8.13672 8.5072 6.625 10.0189 6.625 11.8822C6.625 13.7455 8.13672 15.2572 10 15.2572C11.8633 15.2572 13.375 13.7455 13.375 11.8822C13.375 10.0189 11.8633 8.5072 10 8.5072ZM10 13.7572C8.96406 13.7572 8.125 12.9181 8.125 11.8822C8.125 10.8463 8.96406 10.0072 10 10.0072C11.0359 10.0072 11.875 10.8463 11.875 11.8822C11.875 12.9181 11.0359 13.7572 10 13.7572Z" fill="#8C8C8C"/>
</svg>
