<svg width="18" height="20" viewBox="0 0 18 20" fill="none" xmlns="http://www.w3.org/2000/svg">
<path d="M14.625 13.7103C13.957 13.7103 13.3406 13.9447 12.8578 14.3361L8.00156 10.8228C8.08288 10.3765 8.08288 9.91915 8.00156 9.47283L12.8578 5.95955C13.3406 6.35095 13.957 6.58533 14.625 6.58533C16.1766 6.58533 17.4375 5.32439 17.4375 3.77283C17.4375 2.22126 16.1766 0.960327 14.625 0.960327C13.0734 0.960327 11.8125 2.22126 11.8125 3.77283C11.8125 4.0447 11.85 4.30486 11.9227 4.5533L7.31016 7.89314C6.62578 6.98611 5.53828 6.39783 4.3125 6.39783C2.24062 6.39783 0.5625 8.07595 0.5625 10.1478C0.5625 12.2197 2.24062 13.8978 4.3125 13.8978C5.53828 13.8978 6.62578 13.3095 7.31016 12.4025L11.9227 15.7424C11.85 15.9908 11.8125 16.2533 11.8125 16.5228C11.8125 18.0744 13.0734 19.3353 14.625 19.3353C16.1766 19.3353 17.4375 18.0744 17.4375 16.5228C17.4375 14.9713 16.1766 13.7103 14.625 13.7103ZM14.625 2.55408C15.2977 2.55408 15.8438 3.10017 15.8438 3.77283C15.8438 4.44548 15.2977 4.99158 14.625 4.99158C13.9523 4.99158 13.4062 4.44548 13.4062 3.77283C13.4062 3.10017 13.9523 2.55408 14.625 2.55408ZM4.3125 12.2103C3.17578 12.2103 2.25 11.2845 2.25 10.1478C2.25 9.01111 3.17578 8.08533 4.3125 8.08533C5.44922 8.08533 6.375 9.01111 6.375 10.1478C6.375 11.2845 5.44922 12.2103 4.3125 12.2103ZM14.625 17.7416C13.9523 17.7416 13.4062 17.1955 13.4062 16.5228C13.4062 15.8502 13.9523 15.3041 14.625 15.3041C15.2977 15.3041 15.8438 15.8502 15.8438 16.5228C15.8438 17.1955 15.2977 17.7416 14.625 17.7416Z" fill="#8C8C8C"/>
</svg>
